%TF.GenerationSoftware,KiCad,Pcbnew,(6.0.5)*%
%TF.CreationDate,2024-12-30T17:36:42+01:00*%
%TF.ProjectId,TMC5160_Dev,544d4335-3136-4305-9f44-65762e6b6963,rev?*%
%TF.SameCoordinates,Original*%
%TF.FileFunction,Soldermask,Top*%
%TF.FilePolarity,Negative*%
%FSLAX46Y46*%
G04 Gerber Fmt 4.6, Leading zero omitted, Abs format (unit mm)*
G04 Created by KiCad (PCBNEW (6.0.5)) date 2024-12-30 17:36:42*
%MOMM*%
%LPD*%
G01*
G04 APERTURE LIST*
G04 Aperture macros list*
%AMRoundRect*
0 Rectangle with rounded corners*
0 $1 Rounding radius*
0 $2 $3 $4 $5 $6 $7 $8 $9 X,Y pos of 4 corners*
0 Add a 4 corners polygon primitive as box body*
4,1,4,$2,$3,$4,$5,$6,$7,$8,$9,$2,$3,0*
0 Add four circle primitives for the rounded corners*
1,1,$1+$1,$2,$3*
1,1,$1+$1,$4,$5*
1,1,$1+$1,$6,$7*
1,1,$1+$1,$8,$9*
0 Add four rect primitives between the rounded corners*
20,1,$1+$1,$2,$3,$4,$5,0*
20,1,$1+$1,$4,$5,$6,$7,0*
20,1,$1+$1,$6,$7,$8,$9,0*
20,1,$1+$1,$8,$9,$2,$3,0*%
G04 Aperture macros list end*
%ADD10R,2.000000X2.000000*%
%ADD11C,2.000000*%
%ADD12RoundRect,0.243750X0.456250X-0.243750X0.456250X0.243750X-0.456250X0.243750X-0.456250X-0.243750X0*%
%ADD13RoundRect,0.250000X-0.475000X0.250000X-0.475000X-0.250000X0.475000X-0.250000X0.475000X0.250000X0*%
%ADD14R,0.400000X0.300000*%
%ADD15R,0.600000X0.300000*%
%ADD16R,1.740000X2.450000*%
%ADD17RoundRect,0.250000X0.475000X-0.250000X0.475000X0.250000X-0.475000X0.250000X-0.475000X-0.250000X0*%
%ADD18RoundRect,0.250000X0.250000X0.475000X-0.250000X0.475000X-0.250000X-0.475000X0.250000X-0.475000X0*%
%ADD19RoundRect,0.250000X-0.262500X-0.450000X0.262500X-0.450000X0.262500X0.450000X-0.262500X0.450000X0*%
%ADD20RoundRect,0.250000X0.262500X0.450000X-0.262500X0.450000X-0.262500X-0.450000X0.262500X-0.450000X0*%
%ADD21RoundRect,0.249999X0.790001X1.550001X-0.790001X1.550001X-0.790001X-1.550001X0.790001X-1.550001X0*%
%ADD22O,2.080000X3.600000*%
%ADD23R,1.700000X1.700000*%
%ADD24O,1.700000X1.700000*%
%ADD25C,6.400000*%
%ADD26RoundRect,0.250000X0.450000X-0.262500X0.450000X0.262500X-0.450000X0.262500X-0.450000X-0.262500X0*%
%ADD27RoundRect,0.250000X0.312500X1.075000X-0.312500X1.075000X-0.312500X-1.075000X0.312500X-1.075000X0*%
%ADD28RoundRect,0.243750X-0.243750X-0.456250X0.243750X-0.456250X0.243750X0.456250X-0.243750X0.456250X0*%
%ADD29RoundRect,0.075000X-0.075000X0.662500X-0.075000X-0.662500X0.075000X-0.662500X0.075000X0.662500X0*%
%ADD30RoundRect,0.075000X-0.662500X0.075000X-0.662500X-0.075000X0.662500X-0.075000X0.662500X0.075000X0*%
%ADD31R,5.000000X5.000000*%
%ADD32RoundRect,0.250000X-0.250000X-0.475000X0.250000X-0.475000X0.250000X0.475000X-0.250000X0.475000X0*%
%ADD33RoundRect,0.250000X1.550000X-0.650000X1.550000X0.650000X-1.550000X0.650000X-1.550000X-0.650000X0*%
%ADD34O,3.600000X1.800000*%
%ADD35R,1.500000X2.000000*%
%ADD36R,3.800000X2.000000*%
%ADD37RoundRect,0.250000X-0.450000X0.262500X-0.450000X-0.262500X0.450000X-0.262500X0.450000X0.262500X0*%
%ADD38RoundRect,0.243750X-0.456250X0.243750X-0.456250X-0.243750X0.456250X-0.243750X0.456250X0.243750X0*%
%ADD39R,0.900000X1.000000*%
G04 APERTURE END LIST*
D10*
%TO.C,C15*%
X166542323Y-82000000D03*
D11*
X171542323Y-82000000D03*
%TD*%
D12*
%TO.C,D3*%
X138000000Y-76925000D03*
X138000000Y-75050000D03*
%TD*%
D13*
%TO.C,C6*%
X144300000Y-113250000D03*
X144300000Y-115150000D03*
%TD*%
D14*
%TO.C,Q7*%
X162990000Y-96425000D03*
X162990000Y-95775000D03*
X162990000Y-97075000D03*
X162990000Y-97725000D03*
D15*
X165790000Y-95775000D03*
X165790000Y-97725000D03*
X165790000Y-97075000D03*
X165790000Y-96425000D03*
D16*
X164750000Y-96750000D03*
%TD*%
D17*
%TO.C,C3*%
X144500000Y-139950000D03*
X144500000Y-138050000D03*
%TD*%
D18*
%TO.C,C16*%
X145150000Y-93000000D03*
X143250000Y-93000000D03*
%TD*%
D19*
%TO.C,R21*%
X139387500Y-121900000D03*
X141212500Y-121900000D03*
%TD*%
D14*
%TO.C,Q2*%
X156240000Y-114575000D03*
X156240000Y-113925000D03*
X156240000Y-113275000D03*
X156240000Y-115225000D03*
D15*
X159040000Y-113275000D03*
X159040000Y-114575000D03*
D16*
X158000000Y-114250000D03*
D15*
X159040000Y-115225000D03*
X159040000Y-113925000D03*
%TD*%
D20*
%TO.C,R15*%
X156412500Y-124500000D03*
X154587500Y-124500000D03*
%TD*%
D21*
%TO.C,J6*%
X151040000Y-72777500D03*
D22*
X145960000Y-72777500D03*
%TD*%
D14*
%TO.C,Q5*%
X162990000Y-121425000D03*
X162990000Y-122075000D03*
X162990000Y-120775000D03*
X162990000Y-122725000D03*
D15*
X165790000Y-120775000D03*
X165790000Y-121425000D03*
X165790000Y-122075000D03*
X165790000Y-122725000D03*
D16*
X164750000Y-121750000D03*
%TD*%
D13*
%TO.C,C1*%
X131500000Y-137050000D03*
X131500000Y-138950000D03*
%TD*%
D19*
%TO.C,R6*%
X161337500Y-92000000D03*
X163162500Y-92000000D03*
%TD*%
D23*
%TO.C,J9*%
X138600000Y-86460000D03*
D24*
X138600000Y-89000000D03*
X138600000Y-91540000D03*
%TD*%
D14*
%TO.C,Q8*%
X156240000Y-95775000D03*
X156240000Y-97075000D03*
X156240000Y-96425000D03*
X156240000Y-97725000D03*
D15*
X159040000Y-95775000D03*
D16*
X158000000Y-96750000D03*
D15*
X159040000Y-97075000D03*
X159040000Y-97725000D03*
X159040000Y-96425000D03*
%TD*%
D25*
%TO.C,H2*%
X172000000Y-67000000D03*
%TD*%
D18*
%TO.C,C17*%
X145250000Y-117000000D03*
X143350000Y-117000000D03*
%TD*%
D20*
%TO.C,R17*%
X156412500Y-99500000D03*
X154587500Y-99500000D03*
%TD*%
D26*
%TO.C,R19*%
X141500000Y-88912500D03*
X141500000Y-87087500D03*
%TD*%
D25*
%TO.C,H4*%
X172000000Y-144000000D03*
%TD*%
D27*
%TO.C,R12*%
X152212500Y-122000000D03*
X149287500Y-122000000D03*
%TD*%
D19*
%TO.C,R20*%
X139387500Y-124400000D03*
X141212500Y-124400000D03*
%TD*%
D17*
%TO.C,C12*%
X148700000Y-97850000D03*
X148700000Y-95950000D03*
%TD*%
D28*
%TO.C,D2*%
X126462500Y-134000000D03*
X128337500Y-134000000D03*
%TD*%
D17*
%TO.C,C5*%
X146500000Y-115150000D03*
X146500000Y-113250000D03*
%TD*%
D12*
%TO.C,D4*%
X134000000Y-76925000D03*
X134000000Y-75050000D03*
%TD*%
D11*
%TO.C,TP5*%
X152900000Y-84000000D03*
%TD*%
D17*
%TO.C,C9*%
X142100000Y-115150000D03*
X142100000Y-113250000D03*
%TD*%
D29*
%TO.C,U1*%
X146250000Y-101337500D03*
X145750000Y-101337500D03*
X145250000Y-101337500D03*
X144750000Y-101337500D03*
X144250000Y-101337500D03*
X143750000Y-101337500D03*
X143250000Y-101337500D03*
X142750000Y-101337500D03*
X142250000Y-101337500D03*
X141750000Y-101337500D03*
X141250000Y-101337500D03*
X140750000Y-101337500D03*
D30*
X139337500Y-102750000D03*
X139337500Y-103250000D03*
X139337500Y-103750000D03*
X139337500Y-104250000D03*
X139337500Y-104750000D03*
X139337500Y-105250000D03*
X139337500Y-105750000D03*
X139337500Y-106250000D03*
X139337500Y-106750000D03*
X139337500Y-107250000D03*
X139337500Y-107750000D03*
X139337500Y-108250000D03*
D29*
X140750000Y-109662500D03*
X141250000Y-109662500D03*
X141750000Y-109662500D03*
X142250000Y-109662500D03*
X142750000Y-109662500D03*
X143250000Y-109662500D03*
X143750000Y-109662500D03*
X144250000Y-109662500D03*
X144750000Y-109662500D03*
X145250000Y-109662500D03*
X145750000Y-109662500D03*
X146250000Y-109662500D03*
D30*
X147662500Y-108250000D03*
X147662500Y-107750000D03*
X147662500Y-107250000D03*
X147662500Y-106750000D03*
X147662500Y-106250000D03*
X147662500Y-105750000D03*
X147662500Y-105250000D03*
X147662500Y-104750000D03*
X147662500Y-104250000D03*
X147662500Y-103750000D03*
X147662500Y-103250000D03*
X147662500Y-102750000D03*
D31*
X143500000Y-105500000D03*
%TD*%
D19*
%TO.C,R22*%
X139387500Y-119400000D03*
X141212500Y-119400000D03*
%TD*%
D12*
%TO.C,D6*%
X126000000Y-75050000D03*
X126000000Y-76925000D03*
%TD*%
D26*
%TO.C,R10*%
X150500000Y-93912500D03*
X150500000Y-92087500D03*
%TD*%
D11*
%TO.C,TP2*%
X151000000Y-144000000D03*
%TD*%
D14*
%TO.C,Q1*%
X162990000Y-113925000D03*
X162990000Y-113275000D03*
X162990000Y-114575000D03*
X162990000Y-115225000D03*
D15*
X165790000Y-113275000D03*
X165790000Y-114575000D03*
D16*
X164750000Y-114250000D03*
D15*
X165790000Y-115225000D03*
X165790000Y-113925000D03*
%TD*%
D13*
%TO.C,C7*%
X146600000Y-95950000D03*
X146600000Y-97850000D03*
%TD*%
D20*
%TO.C,R14*%
X163112500Y-124500000D03*
X161287500Y-124500000D03*
%TD*%
D23*
%TO.C,J8*%
X136500000Y-129500000D03*
D24*
X136500000Y-126960000D03*
X136500000Y-124420000D03*
X136500000Y-121880000D03*
X136500000Y-119340000D03*
%TD*%
D14*
%TO.C,Q4*%
X156240000Y-88925000D03*
X156240000Y-89575000D03*
X156240000Y-88275000D03*
X156240000Y-90225000D03*
D15*
X159040000Y-88275000D03*
X159040000Y-89575000D03*
X159040000Y-90225000D03*
D16*
X158000000Y-89250000D03*
D15*
X159040000Y-88925000D03*
%TD*%
D32*
%TO.C,C10*%
X160350000Y-110100000D03*
X162250000Y-110100000D03*
%TD*%
D23*
%TO.C,J4*%
X159500000Y-134960000D03*
D24*
X159500000Y-137500000D03*
X159500000Y-140040000D03*
%TD*%
D26*
%TO.C,R24*%
X136000000Y-76900000D03*
X136000000Y-75075000D03*
%TD*%
%TO.C,R3*%
X138800000Y-100412500D03*
X138800000Y-98587500D03*
%TD*%
D33*
%TO.C,J7*%
X168817500Y-111160000D03*
D34*
X168817500Y-107350000D03*
X168817500Y-103540000D03*
X168817500Y-99730000D03*
%TD*%
D23*
%TO.C,J5*%
X163500000Y-134960000D03*
D24*
X163500000Y-137500000D03*
X163500000Y-140040000D03*
%TD*%
D26*
%TO.C,R25*%
X132000000Y-76900000D03*
X132000000Y-75075000D03*
%TD*%
D35*
%TO.C,U2*%
X138800000Y-137350000D03*
X136500000Y-137350000D03*
D36*
X136500000Y-143650000D03*
D35*
X134200000Y-137350000D03*
%TD*%
D14*
%TO.C,Q6*%
X156240000Y-121425000D03*
X156240000Y-122075000D03*
X156240000Y-120775000D03*
X156240000Y-122725000D03*
D16*
X158000000Y-121750000D03*
D15*
X159040000Y-121425000D03*
X159040000Y-122075000D03*
X159040000Y-122725000D03*
X159040000Y-120775000D03*
%TD*%
D19*
%TO.C,R7*%
X155087500Y-92000000D03*
X156912500Y-92000000D03*
%TD*%
D13*
%TO.C,C4*%
X155500000Y-134050000D03*
X155500000Y-135950000D03*
%TD*%
D11*
%TO.C,TP6*%
X153000000Y-102000000D03*
%TD*%
D10*
%TO.C,C14*%
X166542323Y-129000000D03*
D11*
X171542323Y-129000000D03*
%TD*%
D17*
%TO.C,C2*%
X142000000Y-139950000D03*
X142000000Y-138050000D03*
%TD*%
D25*
%TO.C,H3*%
X125000000Y-144000000D03*
%TD*%
D37*
%TO.C,R1*%
X149300000Y-138087500D03*
X149300000Y-139912500D03*
%TD*%
D20*
%TO.C,R2*%
X128312500Y-136300000D03*
X126487500Y-136300000D03*
%TD*%
D11*
%TO.C,TP7*%
X153000000Y-109000000D03*
%TD*%
D13*
%TO.C,C8*%
X144500000Y-95950000D03*
X144500000Y-97850000D03*
%TD*%
D32*
%TO.C,C11*%
X160350000Y-126500000D03*
X162250000Y-126500000D03*
%TD*%
D25*
%TO.C,H1*%
X125000000Y-67000000D03*
%TD*%
D14*
%TO.C,Q3*%
X162990000Y-89575000D03*
X162990000Y-88275000D03*
X162990000Y-88925000D03*
X162990000Y-90225000D03*
D15*
X165790000Y-88275000D03*
D16*
X164750000Y-89250000D03*
D15*
X165790000Y-90225000D03*
X165790000Y-89575000D03*
X165790000Y-88925000D03*
%TD*%
D19*
%TO.C,R5*%
X155087500Y-117000000D03*
X156912500Y-117000000D03*
%TD*%
D11*
%TO.C,TP4*%
X165000000Y-144000000D03*
%TD*%
D23*
%TO.C,J2*%
X146500000Y-134000000D03*
D24*
X143960000Y-134000000D03*
X141420000Y-134000000D03*
%TD*%
D32*
%TO.C,C13*%
X160350000Y-101500000D03*
X162250000Y-101500000D03*
%TD*%
D11*
%TO.C,TP3*%
X158000000Y-144000000D03*
%TD*%
D37*
%TO.C,R18*%
X135000000Y-86087500D03*
X135000000Y-87912500D03*
%TD*%
D38*
%TO.C,D1*%
X146900000Y-138062500D03*
X146900000Y-139937500D03*
%TD*%
D23*
%TO.C,J3*%
X131500000Y-81370000D03*
D24*
X128960000Y-81370000D03*
X131500000Y-83910000D03*
X128960000Y-83910000D03*
X131500000Y-86450000D03*
X128960000Y-86450000D03*
X131500000Y-88990000D03*
X128960000Y-88990000D03*
X131500000Y-91530000D03*
X128960000Y-91530000D03*
X131500000Y-94070000D03*
X128960000Y-94070000D03*
X131500000Y-96610000D03*
X128960000Y-96610000D03*
X131500000Y-99150000D03*
X128960000Y-99150000D03*
X131500000Y-101690000D03*
X128960000Y-101690000D03*
X131500000Y-104230000D03*
X128960000Y-104230000D03*
X131500000Y-106770000D03*
X128960000Y-106770000D03*
X131500000Y-109310000D03*
X128960000Y-109310000D03*
X131500000Y-111850000D03*
X128960000Y-111850000D03*
X131500000Y-114390000D03*
X128960000Y-114390000D03*
X131500000Y-116930000D03*
X128960000Y-116930000D03*
X131500000Y-119470000D03*
X128960000Y-119470000D03*
X131500000Y-122010000D03*
X128960000Y-122010000D03*
X131500000Y-124550000D03*
X128960000Y-124550000D03*
X131500000Y-127090000D03*
X128960000Y-127090000D03*
X131500000Y-129630000D03*
X128960000Y-129630000D03*
%TD*%
D26*
%TO.C,R23*%
X140000000Y-76900000D03*
X140000000Y-75075000D03*
%TD*%
%TO.C,R11*%
X148000000Y-93912500D03*
X148000000Y-92087500D03*
%TD*%
D19*
%TO.C,R4*%
X161337500Y-117000000D03*
X163162500Y-117000000D03*
%TD*%
D11*
%TO.C,TP1*%
X144000000Y-144000000D03*
%TD*%
D20*
%TO.C,R16*%
X163112500Y-99500000D03*
X161287500Y-99500000D03*
%TD*%
D27*
%TO.C,R13*%
X152212500Y-89500000D03*
X149287500Y-89500000D03*
%TD*%
D12*
%TO.C,D5*%
X130000000Y-76925000D03*
X130000000Y-75050000D03*
%TD*%
D26*
%TO.C,R26*%
X128000000Y-76900000D03*
X128000000Y-75075000D03*
%TD*%
D23*
%TO.C,J1*%
X136525000Y-134000000D03*
D24*
X133985000Y-134000000D03*
X131445000Y-134000000D03*
%TD*%
D11*
%TO.C,TP8*%
X153000000Y-128200000D03*
%TD*%
D39*
%TO.C,X1*%
X151725000Y-133925000D03*
X151725000Y-136075000D03*
X153275000Y-136075000D03*
X153275000Y-133925000D03*
%TD*%
D37*
%TO.C,R8*%
X150500000Y-117587500D03*
X150500000Y-119412500D03*
%TD*%
%TO.C,R9*%
X148000000Y-117587500D03*
X148000000Y-119412500D03*
%TD*%
M02*
