%TF.GenerationSoftware,KiCad,Pcbnew,(6.0.5)*%
%TF.CreationDate,2024-12-30T17:36:42+01:00*%
%TF.ProjectId,TMC5160_Dev,544d4335-3136-4305-9f44-65762e6b6963,rev?*%
%TF.SameCoordinates,Original*%
%TF.FileFunction,Legend,Bot*%
%TF.FilePolarity,Positive*%
%FSLAX46Y46*%
G04 Gerber Fmt 4.6, Leading zero omitted, Abs format (unit mm)*
G04 Created by KiCad (PCBNEW (6.0.5)) date 2024-12-30 17:36:42*
%MOMM*%
%LPD*%
G01*
G04 APERTURE LIST*
G04 Aperture macros list*
%AMRoundRect*
0 Rectangle with rounded corners*
0 $1 Rounding radius*
0 $2 $3 $4 $5 $6 $7 $8 $9 X,Y pos of 4 corners*
0 Add a 4 corners polygon primitive as box body*
4,1,4,$2,$3,$4,$5,$6,$7,$8,$9,$2,$3,0*
0 Add four circle primitives for the rounded corners*
1,1,$1+$1,$2,$3*
1,1,$1+$1,$4,$5*
1,1,$1+$1,$6,$7*
1,1,$1+$1,$8,$9*
0 Add four rect primitives between the rounded corners*
20,1,$1+$1,$2,$3,$4,$5,0*
20,1,$1+$1,$4,$5,$6,$7,0*
20,1,$1+$1,$6,$7,$8,$9,0*
20,1,$1+$1,$8,$9,$2,$3,0*%
G04 Aperture macros list end*
%ADD10R,2.000000X2.000000*%
%ADD11C,2.000000*%
%ADD12RoundRect,0.249999X0.790001X1.550001X-0.790001X1.550001X-0.790001X-1.550001X0.790001X-1.550001X0*%
%ADD13O,2.080000X3.600000*%
%ADD14R,1.700000X1.700000*%
%ADD15O,1.700000X1.700000*%
%ADD16C,6.400000*%
%ADD17RoundRect,0.250000X1.550000X-0.650000X1.550000X0.650000X-1.550000X0.650000X-1.550000X-0.650000X0*%
%ADD18O,3.600000X1.800000*%
G04 APERTURE END LIST*
%LPC*%
D10*
%TO.C,C15*%
X166542323Y-82000000D03*
D11*
X171542323Y-82000000D03*
%TD*%
D12*
%TO.C,J6*%
X151040000Y-72777500D03*
D13*
X145960000Y-72777500D03*
%TD*%
D14*
%TO.C,J9*%
X138600000Y-86460000D03*
D15*
X138600000Y-89000000D03*
X138600000Y-91540000D03*
%TD*%
D16*
%TO.C,H2*%
X172000000Y-67000000D03*
%TD*%
%TO.C,H4*%
X172000000Y-144000000D03*
%TD*%
D11*
%TO.C,TP5*%
X152900000Y-84000000D03*
%TD*%
%TO.C,TP2*%
X151000000Y-144000000D03*
%TD*%
D14*
%TO.C,J8*%
X136500000Y-129500000D03*
D15*
X136500000Y-126960000D03*
X136500000Y-124420000D03*
X136500000Y-121880000D03*
X136500000Y-119340000D03*
%TD*%
D14*
%TO.C,J4*%
X159500000Y-134960000D03*
D15*
X159500000Y-137500000D03*
X159500000Y-140040000D03*
%TD*%
D17*
%TO.C,J7*%
X168817500Y-111160000D03*
D18*
X168817500Y-107350000D03*
X168817500Y-103540000D03*
X168817500Y-99730000D03*
%TD*%
D14*
%TO.C,J5*%
X163500000Y-134960000D03*
D15*
X163500000Y-137500000D03*
X163500000Y-140040000D03*
%TD*%
D11*
%TO.C,TP6*%
X153000000Y-102000000D03*
%TD*%
D10*
%TO.C,C14*%
X166542323Y-129000000D03*
D11*
X171542323Y-129000000D03*
%TD*%
D16*
%TO.C,H3*%
X125000000Y-144000000D03*
%TD*%
D11*
%TO.C,TP7*%
X153000000Y-109000000D03*
%TD*%
D16*
%TO.C,H1*%
X125000000Y-67000000D03*
%TD*%
D11*
%TO.C,TP4*%
X165000000Y-144000000D03*
%TD*%
D14*
%TO.C,J2*%
X146500000Y-134000000D03*
D15*
X143960000Y-134000000D03*
X141420000Y-134000000D03*
%TD*%
D11*
%TO.C,TP3*%
X158000000Y-144000000D03*
%TD*%
D14*
%TO.C,J3*%
X131500000Y-81370000D03*
D15*
X128960000Y-81370000D03*
X131500000Y-83910000D03*
X128960000Y-83910000D03*
X131500000Y-86450000D03*
X128960000Y-86450000D03*
X131500000Y-88990000D03*
X128960000Y-88990000D03*
X131500000Y-91530000D03*
X128960000Y-91530000D03*
X131500000Y-94070000D03*
X128960000Y-94070000D03*
X131500000Y-96610000D03*
X128960000Y-96610000D03*
X131500000Y-99150000D03*
X128960000Y-99150000D03*
X131500000Y-101690000D03*
X128960000Y-101690000D03*
X131500000Y-104230000D03*
X128960000Y-104230000D03*
X131500000Y-106770000D03*
X128960000Y-106770000D03*
X131500000Y-109310000D03*
X128960000Y-109310000D03*
X131500000Y-111850000D03*
X128960000Y-111850000D03*
X131500000Y-114390000D03*
X128960000Y-114390000D03*
X131500000Y-116930000D03*
X128960000Y-116930000D03*
X131500000Y-119470000D03*
X128960000Y-119470000D03*
X131500000Y-122010000D03*
X128960000Y-122010000D03*
X131500000Y-124550000D03*
X128960000Y-124550000D03*
X131500000Y-127090000D03*
X128960000Y-127090000D03*
X131500000Y-129630000D03*
X128960000Y-129630000D03*
%TD*%
D11*
%TO.C,TP1*%
X144000000Y-144000000D03*
%TD*%
D14*
%TO.C,J1*%
X136525000Y-134000000D03*
D15*
X133985000Y-134000000D03*
X131445000Y-134000000D03*
%TD*%
D11*
%TO.C,TP8*%
X153000000Y-128200000D03*
%TD*%
M02*
