%FSLAX45Y45*%
G04 Gerber Fmt 4.5, Leading zero omitted, Abs format (unit mm)*
G04 Created by KiCad (PCBNEW (6.0.5)) date 2024-12-30 17:38:07*
%MOMM*%
%LPD*%
G01*
G04 APERTURE LIST*
%TA.AperFunction,Profile*%
%ADD10C,0.100000*%
%TD*%
%ADD11C,0.200000*%
G04 APERTURE END LIST*
D10*
X17200000Y-14800000D02*
G75*
G03*
X17600000Y-14400000I0J400000D01*
G01*
X17200000Y-6300000D02*
X12500000Y-6300000D01*
X17600000Y-14400000D02*
X17600000Y-6700000D01*
X12100000Y-14400000D02*
G75*
G03*
X12500000Y-14800000I400000J0D01*
G01*
X12500000Y-6300000D02*
G75*
G03*
X12100000Y-6700000I0J-400000D01*
G01*
X12500000Y-14800000D02*
X17200000Y-14800000D01*
X17600000Y-6700000D02*
G75*
G03*
X17200000Y-6300000I-400000J0D01*
G01*
X12100000Y-6700000D02*
X12100000Y-14400000D01*
D11*
X12352619Y-15115476D02*
X12352619Y-14915476D01*
X12400238Y-14915476D01*
X12428809Y-14925000D01*
X12447857Y-14944048D01*
X12457381Y-14963095D01*
X12466905Y-15001190D01*
X12466905Y-15029762D01*
X12457381Y-15067857D01*
X12447857Y-15086905D01*
X12428809Y-15105952D01*
X12400238Y-15115476D01*
X12352619Y-15115476D01*
X12552619Y-15115476D02*
X12552619Y-14982143D01*
X12552619Y-15020238D02*
X12562143Y-15001190D01*
X12571667Y-14991667D01*
X12590714Y-14982143D01*
X12609762Y-14982143D01*
X12676428Y-15115476D02*
X12676428Y-14982143D01*
X12676428Y-14915476D02*
X12666905Y-14925000D01*
X12676428Y-14934524D01*
X12685952Y-14925000D01*
X12676428Y-14915476D01*
X12676428Y-14934524D01*
X12800238Y-15115476D02*
X12781190Y-15105952D01*
X12771667Y-15086905D01*
X12771667Y-14915476D01*
X12905000Y-15115476D02*
X12885952Y-15105952D01*
X12876428Y-15086905D01*
X12876428Y-14915476D01*
X13133571Y-15115476D02*
X13133571Y-14915476D01*
X13200238Y-15058333D01*
X13266905Y-14915476D01*
X13266905Y-15115476D01*
X13447857Y-15115476D02*
X13447857Y-15010714D01*
X13438333Y-14991667D01*
X13419286Y-14982143D01*
X13381190Y-14982143D01*
X13362143Y-14991667D01*
X13447857Y-15105952D02*
X13428809Y-15115476D01*
X13381190Y-15115476D01*
X13362143Y-15105952D01*
X13352619Y-15086905D01*
X13352619Y-15067857D01*
X13362143Y-15048809D01*
X13381190Y-15039286D01*
X13428809Y-15039286D01*
X13447857Y-15029762D01*
X13543095Y-14982143D02*
X13543095Y-15182143D01*
X13543095Y-14991667D02*
X13562143Y-14982143D01*
X13600238Y-14982143D01*
X13619286Y-14991667D01*
X13628809Y-15001190D01*
X13638333Y-15020238D01*
X13638333Y-15077381D01*
X13628809Y-15096428D01*
X13619286Y-15105952D01*
X13600238Y-15115476D01*
X13562143Y-15115476D01*
X13543095Y-15105952D01*
X13724048Y-15096428D02*
X13733571Y-15105952D01*
X13724048Y-15115476D01*
X13714524Y-15105952D01*
X13724048Y-15096428D01*
X13724048Y-15115476D01*
X13724048Y-14991667D02*
X13733571Y-15001190D01*
X13724048Y-15010714D01*
X13714524Y-15001190D01*
X13724048Y-14991667D01*
X13724048Y-15010714D01*
M02*
