M48
; DRILL file {KiCad (6.0.5)} date Mon Dec 30 17:38:02 2024
; FORMAT={-:-/ absolute / metric / decimal}
; #@! TF.CreationDate,2024-12-30T17:38:02+01:00
; #@! TF.GenerationSoftware,Kicad,Pcbnew,(6.0.5)
; #@! TF.FileFunction,Plated,1,4,PTH
FMAT,2
METRIC
; #@! TA.AperFunction,Plated,PTH,ComponentDrill
T1C0.200
; #@! TA.AperFunction,Plated,PTH,ViaDrill
T2C0.400
; #@! TA.AperFunction,Plated,PTH,ComponentDrill
T3C1.000
; #@! TA.AperFunction,Plated,PTH,ComponentDrill
T4C1.200
; #@! TA.AperFunction,Plated,PTH,ComponentDrill
T5C1.400
; #@! TA.AperFunction,Plated,PTH,ComponentDrill
T6C3.200
%
G90
G05
T1
X141.25Y-103.25
X141.25Y-104.375
X141.25Y-105.5
X141.25Y-106.625
X141.25Y-107.75
X142.375Y-103.25
X142.375Y-104.375
X142.375Y-105.5
X142.375Y-106.625
X142.375Y-107.75
X143.5Y-103.25
X143.5Y-104.375
X143.5Y-105.5
X143.5Y-106.625
X143.5Y-107.75
X144.625Y-103.25
X144.625Y-104.375
X144.625Y-105.5
X144.625Y-106.625
X144.625Y-107.75
X145.75Y-103.25
X145.75Y-104.375
X145.75Y-105.5
X145.75Y-106.625
X145.75Y-107.75
T2
X128.0Y-73.888
X131.5Y-140.0
X132.0Y-73.888
X135.0Y-89.0
X136.0Y-73.888
X136.4Y-105.9
X136.7Y-107.0
X136.8Y-94.6
X136.8Y-95.7
X137.9Y-106.0
X138.8Y-97.4
X138.8Y-101.6
X139.0Y-135.5
X140.0Y-73.888
X140.1Y-99.5
X141.2Y-125.9
X141.5Y-86.0
X141.9Y-93.0
X142.2Y-116.3
X142.3Y-97.9
X142.3Y-99.0
X142.7Y-112.0
X143.2Y-96.3
X144.2Y-98.9
X144.5Y-137.0
X144.8Y-86.5
X144.8Y-87.7
X144.8Y-88.9
X144.8Y-90.1
X144.8Y-120.9
X144.8Y-122.1
X144.8Y-123.3
X144.8Y-124.5
X145.573Y-98.883
X145.6Y-87.1
X145.6Y-88.3
X145.6Y-89.5
X145.6Y-90.7
X145.6Y-121.5
X145.6Y-122.7
X145.6Y-123.9
X145.6Y-125.1
X146.2Y-93.0
X146.4Y-86.5
X146.4Y-87.7
X146.4Y-88.9
X146.4Y-90.1
X146.4Y-120.9
X146.4Y-122.1
X146.4Y-123.3
X146.4Y-124.5
X147.2Y-87.1
X147.2Y-88.3
X147.2Y-89.5
X147.2Y-90.7
X147.2Y-121.5
X147.2Y-122.7
X147.2Y-123.9
X147.2Y-125.1
X148.0Y-86.5
X148.0Y-87.7
X148.0Y-88.9
X148.0Y-90.1
X148.0Y-120.9
X148.0Y-122.1
X148.0Y-123.3
X148.0Y-124.5
X148.2Y-101.0
X148.5Y-111.2
X148.5Y-112.3
X148.5Y-113.4
X148.5Y-114.9
X148.5Y-116.2
X150.0Y-95.9
X150.2Y-124.5
X150.55Y-111.4
X150.7Y-96.8
X151.3Y-110.5
X151.3Y-124.5
X151.7Y-137.2
X152.2Y-111.4
X152.2Y-112.6
X152.2Y-113.8
X152.2Y-115.0
X152.4Y-124.5
X152.9Y-94.0
X152.9Y-95.2
X152.9Y-96.4
X152.9Y-97.6
X153.0Y-86.4
X153.0Y-87.6
X153.0Y-112.0
X153.0Y-113.2
X153.0Y-114.4
X153.0Y-115.6
X153.5Y-124.5
X153.7Y-94.6
X153.7Y-95.8
X153.7Y-97.0
X153.7Y-98.2
X153.8Y-87.0
X153.8Y-88.2
X153.8Y-89.4
X153.8Y-90.6
X153.8Y-111.4
X153.8Y-112.6
X153.8Y-113.8
X153.8Y-115.0
X153.8Y-118.4
X153.8Y-119.6
X153.8Y-120.8
X153.8Y-122.0
X153.8Y-123.2
X154.0Y-92.2
X154.0Y-117.0
X154.5Y-94.0
X154.5Y-95.2
X154.5Y-96.4
X154.5Y-97.6
X154.6Y-86.4
X154.6Y-87.6
X154.6Y-88.8
X154.6Y-90.0
X154.6Y-112.0
X154.6Y-113.2
X154.6Y-114.4
X154.6Y-115.6
X154.6Y-119.0
X154.6Y-120.2
X154.6Y-121.4
X154.6Y-122.6
X155.3Y-94.6
X155.3Y-95.8
X155.3Y-97.0
X155.3Y-98.2
X155.4Y-87.0
X155.4Y-88.2
X155.4Y-89.4
X155.4Y-90.6
X155.4Y-111.4
X155.4Y-112.6
X155.4Y-113.8
X155.4Y-115.0
X155.4Y-118.4
X155.4Y-119.6
X155.4Y-120.8
X155.4Y-122.0
X155.4Y-123.2
X155.5Y-137.0
X156.1Y-94.0
X156.2Y-86.4
X156.2Y-119.0
X156.3Y-109.2
X157.5Y-87.1
X157.5Y-94.6
X157.5Y-119.6
X158.3Y-86.5
X158.3Y-94.1
X158.3Y-111.5
X158.3Y-119.0
X159.1Y-87.1
X159.1Y-93.1
X159.1Y-94.6
X159.1Y-112.1
X159.1Y-119.6
X159.9Y-86.5
X159.9Y-87.7
X159.9Y-88.9
X159.9Y-90.1
X159.9Y-94.0
X159.9Y-95.2
X159.9Y-96.4
X159.9Y-97.6
X159.9Y-111.5
X159.9Y-112.7
X159.9Y-113.9
X159.9Y-115.1
X159.9Y-119.0
X159.9Y-120.2
X159.9Y-121.4
X159.9Y-122.6
X160.0Y-116.6
X160.7Y-87.1
X160.7Y-88.3
X160.7Y-89.5
X160.7Y-90.7
X160.7Y-94.6
X160.7Y-95.8
X160.7Y-97.0
X160.7Y-98.2
X160.7Y-112.1
X160.7Y-113.3
X160.7Y-114.5
X160.7Y-115.7
X160.7Y-119.6
X160.7Y-120.8
X160.7Y-122.0
X160.7Y-123.2
X161.5Y-86.5
X161.5Y-87.7
X161.5Y-88.9
X161.5Y-90.1
X161.5Y-94.0
X161.5Y-95.2
X161.5Y-96.4
X161.5Y-97.6
X161.5Y-111.5
X161.5Y-112.7
X161.5Y-113.9
X161.5Y-115.1
X161.5Y-119.0
X161.5Y-120.2
X161.5Y-121.4
X161.5Y-122.6
X162.3Y-87.1
X162.3Y-88.3
X162.3Y-89.5
X162.3Y-94.6
X162.3Y-95.8
X162.3Y-97.0
X162.3Y-112.1
X162.3Y-113.3
X162.3Y-114.5
X162.3Y-119.6
X162.3Y-120.8
X162.3Y-122.0
X163.1Y-86.5
X163.1Y-94.0
X163.1Y-111.5
X163.1Y-119.0
T3
X128.96Y-81.37
X128.96Y-83.91
X128.96Y-86.45
X128.96Y-88.99
X128.96Y-91.53
X128.96Y-94.07
X128.96Y-96.61
X128.96Y-99.15
X128.96Y-101.69
X128.96Y-104.23
X128.96Y-106.77
X128.96Y-109.31
X128.96Y-111.85
X128.96Y-114.39
X128.96Y-116.93
X128.96Y-119.47
X128.96Y-122.01
X128.96Y-124.55
X128.96Y-127.09
X128.96Y-129.63
X131.445Y-134.0
X131.5Y-81.37
X131.5Y-83.91
X131.5Y-86.45
X131.5Y-88.99
X131.5Y-91.53
X131.5Y-94.07
X131.5Y-96.61
X131.5Y-99.15
X131.5Y-101.69
X131.5Y-104.23
X131.5Y-106.77
X131.5Y-109.31
X131.5Y-111.85
X131.5Y-114.39
X131.5Y-116.93
X131.5Y-119.47
X131.5Y-122.01
X131.5Y-124.55
X131.5Y-127.09
X131.5Y-129.63
X133.985Y-134.0
X136.5Y-119.34
X136.5Y-121.88
X136.5Y-124.42
X136.5Y-126.96
X136.5Y-129.5
X136.525Y-134.0
X138.6Y-86.46
X138.6Y-89.0
X138.6Y-91.54
X141.42Y-134.0
X143.96Y-134.0
X144.0Y-144.0
X146.5Y-134.0
X151.0Y-144.0
X152.9Y-84.0
X153.0Y-102.0
X153.0Y-109.0
X153.0Y-128.2
X158.0Y-144.0
X159.5Y-134.96
X159.5Y-137.5
X159.5Y-140.04
X163.5Y-134.96
X163.5Y-137.5
X163.5Y-140.04
X165.0Y-144.0
X166.542Y-82.0
X166.542Y-129.0
X171.542Y-82.0
X171.542Y-129.0
T4
X168.817Y-99.73
X168.817Y-103.54
X168.817Y-107.35
X168.817Y-111.16
T5
X145.96Y-72.778
X151.04Y-72.778
T6
X125.0Y-67.0
X125.0Y-144.0
X172.0Y-67.0
X172.0Y-144.0
T0
M30
